<svg xmlns="http://www.w3.org/2000/svg" viewBox="0 0 960 600" role="img" aria-labelledby="title" preserveAspectRatio="xMidYMid slice">
  <title id="title">PDF Utility Suite illustrative preview</title>
  <defs>
    <linearGradient id="bg" x1="0" y1="0" x2="1" y2="1">
      <stop offset="0%" stop-color="#fb923c"/>
      <stop offset="100%" stop-color="#ec4899"/>
    </linearGradient>
    <radialGradient id="glow" cx="0.3" cy="0.3" r="0.9">
      <stop offset="0%" stop-color="rgba(255,255,255,0.85)"/>
      <stop offset="100%" stop-color="rgba(255,255,255,0.15)"/>
    </radialGradient>
  </defs>
  <rect width="960" height="600" fill="url(#bg)"/>
  <g transform="translate(160 110)">
    <rect width="640" height="380" rx="28" fill="rgba(255,255,255,0.85)"/>
    <rect x="56" y="72" width="240" height="44" rx="16" fill="#fb923c" opacity="0.18"/>
    <rect x="320" y="72" width="240" height="44" rx="16" fill="#ec4899" opacity="0.18"/>
    <rect x="56" y="146" width="504" height="28" rx="14" fill="#fb7185" opacity="0.35"/>
    <rect x="56" y="190" width="420" height="24" rx="12" fill="#fb7185" opacity="0.24"/>
    <rect x="56" y="234" width="360" height="24" rx="12" fill="#fb7185" opacity="0.18"/>
    <rect x="56" y="286" width="504" height="88" rx="20" fill="url(#glow)"/>
    <path d="M120 316h140l-24 28h140l-24 28h140" stroke="#ec4899" stroke-width="12" stroke-linecap="round" stroke-linejoin="round" opacity="0.5" fill="none"/>
  </g>
  <g transform="translate(620 380)">
    <circle cx="0" cy="0" r="88" fill="rgba(255,255,255,0.14)"/>
    <path d="M-24 -24h48l24 24-24 24h-48l-24-24z" fill="#f8fafc" opacity="0.45"/>
    <rect x="-12" y="-54" width="24" height="108" rx="12" fill="#fef2f2" opacity="0.4"/>
  </g>
</svg>
